<?xml version="1.0" standalone="no"?>
<!DOCTYPE svg PUBLIC "-//W3C//DTD SVG 20010904//EN"
 "http://www.w3.org/TR/2001/REC-SVG-20010904/DTD/svg10.dtd">
<svg version="1.0" xmlns="http://www.w3.org/2000/svg"
 width="31.88" height="32" viewBox="0 0 256 257"
 preserveAspectRatio="xMidYMid meet">
<metadata>
Created by potrace 1.16, written by Peter Selinger 2001-2019
</metadata>
<g transform="translate(0.000000,1024.000000) scale(0.100000,-0.100000)"
fill="#000000" stroke="none">
<path d="M4838 9528 c-23 -28 -82 -96 -129 -150 -47 -54 -102 -126 -122 -160
-75 -126 -72 -89 -72 -888 0 -789 -2 -760 64 -833 64 -71 87 -77 327 -77 203
0 212 1 245 23 50 34 96 100 108 157 15 72 15 1389 0 1462 -14 64 -55 148
-105 214 -38 50 -262 304 -269 304 -2 0 -23 -23 -47 -52z m162 -352 c28 -16
56 -43 74 -72 28 -44 30 -55 35 -183 3 -75 5 -164 3 -198 l-3 -63 -109 0 -110
0 0 105 0 104 -32 18 c-25 12 -54 16 -115 15 l-83 -2 0 60 c0 118 64 207 169
237 60 17 116 10 171 -21z m83 -1482 c30 -7 34 -27 16 -68 -18 -38 -51 -45
-221 -48 -153 -3 -157 -3 -182 21 -27 25 -50 87 -39 104 6 10 375 3 426 -9z"/>
<path d="M4435 9323 c-166 -22 -513 -98 -615 -133 -14 -5 -79 -25 -145 -46
-115 -36 -267 -90 -330 -119 -16 -7 -78 -34 -136 -59 -58 -24 -141 -64 -185
-87 -354 -187 -438 -241 -411 -268 14 -14 27 -14 27 0 0 5 -4 7 -10 4 -12 -7
-13 5 -2 21 4 6 28 23 54 37 52 29 70 27 105 -10 14 -14 34 -23 53 -23 39 0
38 15 -2 29 -26 9 -30 14 -18 21 10 6 17 4 23 -5 4 -8 15 -15 22 -15 8 0 15
-5 15 -11 0 -5 5 -7 10 -4 6 3 10 1 10 -4 0 -6 -4 -11 -10 -11 -5 0 -10 -9
-10 -19 0 -22 55 -40 71 -24 12 12 16 80 6 118 -7 29 -7 30 7 6 12 -22 14 -22
23 -7 8 14 11 15 21 3 8 -10 9 -24 1 -51 -6 -21 -8 -47 -6 -57 3 -11 1 -19 -4
-19 -5 0 -9 5 -9 11 0 17 -17 1 -23 -21 -3 -13 -1 -20 6 -17 6 2 19 -5 30 -16
10 -10 25 -16 33 -13 8 3 13 2 10 -3 -3 -5 25 -8 63 -7 38 0 67 4 65 8 -3 5 2
8 11 8 11 0 15 -5 11 -16 -3 -8 -2 -12 4 -9 6 3 10 1 10 -4 0 -6 5 -11 11 -11
6 0 1 13 -10 29 -18 25 -19 30 -6 41 32 27 11 142 -28 156 -34 12 -136 20
-130 10 7 -10 -18 -27 -29 -20 -15 10 -9 82 8 88 9 3 14 12 11 20 -3 7 3 20
13 28 10 9 19 21 21 27 5 14 46 3 53 -14 6 -17 -33 -60 -62 -70 -12 -3 -22
-11 -22 -18 0 -8 3 -8 11 0 7 7 31 9 64 6 33 -4 55 -1 59 6 11 18 26 13 26 -9
0 -18 7 -20 78 -20 66 0 80 3 92 20 8 12 26 20 42 20 l28 0 0 80 c0 72 -2 80
-19 80 -14 0 -18 -5 -14 -20 4 -16 0 -20 -20 -20 -19 0 -26 6 -29 23 -2 18 -9
22 -40 22 -33 0 -38 -3 -38 -22 0 -25 -10 -29 -28 -11 -19 19 -14 34 13 46 32
15 38 15 30 2 -8 -13 7 -13 40 0 14 5 24 6 21 2 -6 -10 56 -8 73 2 6 4 11 21
11 38 0 30 1 30 19 14 10 -9 28 -19 40 -21 18 -3 22 0 19 18 -2 13 -11 23 -23
25 -17 3 -17 1 -5 -7 13 -9 13 -11 -2 -11 -23 0 -32 17 -12 24 21 8 65 -4 58
-15 -3 -5 2 -9 10 -9 27 0 26 18 -1 25 l-26 6 28 15 c26 13 30 13 44 -1 15
-15 13 -16 -14 -10 -23 5 -26 4 -15 -4 24 -17 58 -13 80 9 11 11 20 15 20 8 0
-6 3 -9 6 -6 3 4 0 16 -6 29 -11 20 -10 21 11 16 13 -4 39 -7 57 -7 31 0 32
-2 32 -40 0 -40 0 -40 -39 -40 l-39 0 1 -49 2 -49 59 -6 c99 -10 91 -19 91 99
l0 104 -40 -4 c-35 -4 -36 -3 -10 4 l30 9 -29 1 c-34 1 -32 6 7 15 19 4 26 3
22 -4 -3 -5 1 -10 10 -10 12 0 15 5 11 16 -6 16 6 16 67 -2 12 -4 17 0 17 15
0 17 6 21 34 21 18 0 39 6 45 14 17 20 81 30 95 16 8 -9 5 -11 -14 -5 -19 5
-21 4 -10 -4 13 -10 13 -11 0 -11 -12 -1 -11 -3 3 -11 10 -6 23 -8 30 -5 7 2
3 5 -8 5 -17 1 -17 3 -5 11 20 13 43 13 35 0 -4 -6 8 -10 29 -10 l36 0 0 -80
c0 -47 -4 -80 -10 -80 -5 0 -10 -18 -10 -40 0 -22 -5 -40 -11 -40 -5 0 -7 5
-4 10 11 18 -7 11 -42 -16 -18 -14 -31 -30 -28 -35 4 -5 1 -9 -6 -9 -6 0 -9 8
-6 19 2 10 1 25 -4 32 -6 10 -9 7 -10 -11 0 -14 -2 -35 -3 -48 -2 -16 2 -21
11 -18 18 7 18 -80 1 -88 -10 -5 -10 -7 0 -12 6 -3 12 -19 12 -35 0 -22 5 -29
20 -29 22 0 27 15 8 24 -7 3 2 5 20 3 17 -2 32 1 32 6 0 5 20 7 45 5 34 -2 44
0 40 10 -3 9 2 12 18 10 22 -3 22 -3 24 166 2 136 5 171 17 185 30 33 14 57
-36 53 -19 -2 -28 2 -28 13 0 10 -10 15 -27 16 l-28 1 28 10 c19 7 27 17 27
33 0 17 7 24 31 29 51 10 52 9 45 -38 -5 -33 -3 -48 9 -60 19 -18 35 -21 35
-5 0 5 -5 7 -12 3 -8 -5 -9 -2 -5 10 4 10 7 33 7 52 0 19 5 34 10 34 6 0 10
-12 10 -26 0 -17 4 -23 13 -18 7 5 6 0 -3 -11 -8 -10 -10 -16 -3 -12 7 4 14
-1 19 -15 l6 -21 14 24 c8 14 11 36 7 54 -5 24 -3 28 8 18 11 -8 19 -3 36 23
13 20 17 33 10 33 -7 -1 -25 -4 -42 -6z"/>
<path d="M5642 9137 c-48 -51 -17 -137 49 -137 34 0 89 46 89 75 0 72 -91 112
-138 62z"/>
<path d="M6093 8963 c-22 -4 -30 -22 -48 -111 -7 -35 -59 -82 -91 -82 -11 0
-43 16 -71 35 -29 19 -57 35 -64 35 -13 0 -195 -175 -210 -201 -6 -12 0 -28
20 -56 52 -72 54 -78 32 -128 -13 -30 -27 -46 -43 -49 -13 -2 -45 -8 -73 -13
l-50 -8 -3 -157 c-3 -176 -5 -170 73 -183 67 -11 72 -15 89 -49 23 -48 20 -66
-15 -119 -18 -28 -28 -53 -25 -64 10 -29 184 -203 204 -203 10 0 42 15 72 34
47 29 57 32 79 23 59 -26 70 -38 82 -95 20 -97 9 -92 178 -92 164 0 165 0 176
65 15 92 15 92 57 111 45 20 37 22 145 -42 l32 -19 56 55 c31 30 79 81 106
112 l50 56 -40 62 -40 61 19 42 c18 41 21 43 97 62 l78 20 3 154 c2 117 -1
156 -10 162 -7 5 -37 11 -66 15 -62 8 -98 33 -107 75 -5 24 0 42 29 90 20 33
36 64 36 67 0 4 -47 54 -105 112 l-105 104 -32 -18 c-18 -11 -48 -30 -67 -42
l-35 -23 -37 21 c-45 25 -57 46 -67 118 l-7 55 -45 7 c-49 7 -221 8 -257 1z
m187 -212 l5 -53 72 -23 c40 -12 93 -35 119 -50 l46 -27 43 31 c24 17 47 31
51 31 12 0 54 -42 54 -55 0 -6 -12 -22 -26 -36 -46 -43 -47 -53 -10 -121 19
-35 42 -86 51 -115 l17 -52 56 -3 57 -3 3 -48 c3 -52 4 -52 -70 -62 l-47 -6
-22 -67 c-12 -37 -34 -90 -50 -118 l-29 -51 37 -42 36 -43 -31 -31 -31 -30
-40 36 c-23 20 -47 37 -54 37 -6 0 -31 -13 -55 -29 -24 -17 -74 -38 -112 -48
l-70 -17 0 -58 0 -58 -55 0 -54 0 -3 57 -3 56 -65 22 c-36 12 -88 34 -116 48
l-51 26 -41 -34 c-22 -19 -43 -35 -47 -35 -8 0 -54 53 -55 64 0 4 14 24 30 43
17 18 30 38 30 43 0 5 -13 30 -29 55 -16 25 -37 74 -47 110 l-19 64 -55 3 -55
3 -3 57 -3 57 57 3 56 3 27 75 c14 41 36 91 49 111 29 47 28 52 -12 96 l-34
38 27 33 28 32 45 -36 46 -35 71 36 c40 21 93 43 119 49 l47 12 3 49 c2 27 7
52 12 55 4 3 28 5 52 5 l43 0 5 -54z"/>
<path d="M6133 8575 c-65 -18 -119 -51 -173 -107 -165 -173 -112 -457 106
-564 52 -25 70 -29 154 -29 84 0 102 3 152 28 179 88 260 285 187 455 -47 110
-136 189 -244 217 -72 18 -113 18 -182 0z m156 -126 c47 -16 39 -37 -16 -44
-73 -9 -132 -43 -166 -95 -27 -43 -29 -49 -24 -130 2 -52 11 -98 21 -118 21
-41 7 -41 -40 0 -119 105 -91 297 54 373 52 26 119 32 171 14z"/>
<path d="M3670 8641 c-71 -15 -130 -61 -164 -128 -13 -26 -16 -67 -16 -218 l0
-185 -34 -68 c-39 -78 -70 -172 -87 -260 -30 -158 59 -340 200 -409 49 -25 67
-28 151 -28 84 0 102 3 152 28 97 48 164 143 190 272 19 97 -17 256 -93 407
-29 57 -29 59 -29 245 0 162 -3 194 -19 229 -17 38 -58 77 -106 102 -29 15
-105 22 -145 13z m69 -175 c10 -12 8 -19 -8 -35 -28 -28 -30 -41 -34 -231 -4
-134 -8 -177 -26 -230 -12 -37 -26 -117 -32 -189 -11 -123 -11 -123 15 -173
33 -64 34 -88 2 -88 -32 0 -82 58 -97 112 -19 69 -5 199 32 303 30 84 32 103
40 284 9 205 15 232 62 251 30 12 33 12 46 -4z"/>
<path d="M7170 8545 c0 -29 -4 -35 -22 -36 -75 -3 -73 -2 -76 -41 l-3 -38 50
0 c39 0 51 -4 51 -15 0 -11 11 -15 35 -15 22 0 38 6 41 15 5 11 21 15 60 15
l54 0 0 35 0 34 -57 3 -58 3 -3 38 c-3 35 -5 37 -38 37 -32 0 -34 -2 -34 -35z"/>
<path d="M2194 8459 l-9 -91 -64 -23 c-35 -13 -68 -28 -74 -34 -19 -19 -37
-12 -96 34 -31 25 -62 45 -67 45 -5 0 -51 -42 -103 -94 -65 -66 -91 -98 -85
-107 4 -8 26 -38 48 -67 l39 -53 -31 -62 c-17 -34 -38 -80 -45 -102 l-14 -40
-91 -3 -92 -3 0 -149 0 -149 33 -6 c17 -3 59 -6 91 -8 58 -2 59 -3 71 -37 7
-19 26 -64 44 -99 l31 -64 -50 -64 -51 -63 95 -95 c53 -52 101 -95 108 -95 7
0 39 20 70 45 l57 44 63 -28 c35 -15 75 -33 90 -39 24 -10 27 -17 33 -79 3
-37 7 -75 8 -83 2 -12 26 -15 139 -18 158 -3 146 -12 150 107 l3 64 41 12 c22
6 64 24 92 40 l52 28 43 -40 c79 -73 72 -74 180 36 54 54 97 104 97 111 0 8
-19 36 -42 63 -37 45 -40 52 -31 76 32 76 61 148 66 164 5 14 20 17 96 17 49
0 92 4 95 8 3 5 2 74 -1 155 l-6 147 -88 0 -87 0 -13 38 c-6 20 -26 69 -44
107 l-32 70 29 40 c16 22 39 51 51 63 l22 24 -98 94 c-53 52 -102 94 -107 94
-6 0 -37 -21 -70 -47 l-60 -46 -68 31 c-38 18 -76 32 -85 32 -25 0 -31 18 -37
105 l-5 80 -141 3 -141 3 -9 -92z m184 -219 c12 -12 22 -30 22 -40 0 -21 0
-21 -120 -39 -242 -36 -425 -259 -423 -516 1 -73 17 -140 59 -250 7 -19 7 -19
-13 -2 -11 10 -32 44 -46 75 -76 168 -76 321 -2 477 75 156 196 253 370 296
94 23 127 23 153 -1z"/>
<path d="M7740 8292 c-24 -2 -48 -8 -52 -15 -3 -6 -9 -37 -13 -68 -8 -68 -16
-79 -72 -104 l-42 -18 -55 42 c-30 22 -64 41 -74 41 -18 0 -123 -99 -158 -148
-14 -20 -14 -25 7 -55 12 -17 31 -42 42 -54 19 -21 19 -23 1 -73 -10 -28 -24
-56 -32 -62 -7 -6 -43 -14 -80 -17 l-67 -6 -3 -131 -3 -131 32 -7 c17 -3 51
-6 76 -6 42 0 45 -2 63 -42 28 -66 28 -73 -14 -127 l-38 -51 38 -47 c57 -70
119 -133 131 -133 5 0 38 20 73 44 l63 44 46 -21 c57 -27 58 -28 66 -95 13
-106 7 -102 144 -102 l119 0 12 73 c16 101 16 100 67 124 l46 22 67 -45 c37
-24 70 -44 74 -44 21 0 166 163 166 187 0 6 -19 31 -42 57 l-41 48 17 54 17
54 47 1 c50 1 104 8 110 14 3 2 1 63 -3 134 l-7 131 -52 0 c-72 0 -95 16 -118
77 l-20 51 42 57 42 57 -29 31 c-16 18 -54 59 -85 91 l-55 59 -63 -48 -62 -48
-47 19 c-53 22 -72 53 -79 127 -3 27 -10 50 -16 52 -19 6 -139 10 -186 7z
m192 -375 c70 -32 118 -74 150 -134 105 -195 8 -412 -210 -468 -51 -13 -73
-14 -115 -5 -165 34 -266 150 -267 306 0 89 21 151 71 208 107 121 239 154
371 93z"/>
<path d="M6725 7478 c-49 -26 -59 -77 -24 -122 41 -53 126 -26 144 46 6 22 1
33 -23 58 -32 31 -63 37 -97 18z"/>
<path d="M1374 7467 c-5 -7 -19 -27 -29 -44 -11 -18 -23 -33 -26 -33 -4 0 -11
-10 -15 -22 -3 -12 -15 -31 -25 -42 -12 -12 -17 -28 -13 -40 4 -15 3 -17 -4
-8 -7 10 -14 5 -31 -23 -20 -34 -21 -55 -1 -55 4 0 6 8 4 18 -5 20 12 50 22
39 4 -3 2 -13 -5 -20 -9 -11 -8 -17 4 -27 8 -7 15 -9 16 -4 1 5 3 31 5 58 3
37 11 55 31 73 20 19 28 22 34 12 6 -10 10 -9 15 4 4 10 2 23 -5 30 -19 19
-12 29 18 22 18 -4 41 -1 59 9 27 14 32 13 90 -15 41 -19 62 -35 62 -47 0 -15
-2 -15 -10 -2 -8 11 -9 8 -4 -13 4 -19 1 -34 -11 -47 -12 -13 -14 -23 -7 -35
7 -13 13 -4 26 42 10 32 20 63 22 69 3 6 -21 23 -53 39 -32 15 -78 38 -103 51
-52 27 -52 27 -66 11z"/>
<path d="M5250 7236 c-218 -50 -836 -187 -1105 -246 -291 -63 -1018 -220
-1140 -246 -133 -29 -280 -66 -312 -79 -81 -34 -146 -108 -177 -203 -16 -48
-18 -140 -16 -1253 1 -1158 1 -1204 20 -1256 32 -92 93 -160 180 -202 l55 -26
470 -5 470 -5 3 -179 c2 -137 -1 -181 -10 -188 -7 -4 -159 -8 -338 -8 -295 0
-329 -2 -366 -19 -57 -26 -86 -70 -93 -144 l-6 -59 -65 -2 -65 -2 -3 -72 -3
-72 2161 0 2161 0 -3 72 -3 71 -80 2 c-44 0 -111 2 -149 3 l-69 2 47 50 c26
27 57 71 69 97 l22 48 0 1655 0 1655 -24 45 c-50 94 -119 152 -225 190 -34 12
-108 39 -166 60 -188 69 -762 271 -860 302 -132 42 -239 46 -380 14z m280
-207 c56 -25 86 -53 112 -103 20 -39 20 -55 22 -1750 1 -1443 -1 -1719 -13
-1759 -20 -70 -96 -150 -167 -176 -160 -61 -342 5 -408 148 l-21 46 -3 1715
c-2 1280 0 1725 9 1755 21 74 66 117 144 136 17 4 86 7 155 8 106 0 132 -3
170 -20z m-680 -2403 c-5 -5 -120 -13 -257 -17 -289 -9 -719 -25 -1088 -40
-302 -12 -352 -14 -617 -24 l-198 -8 0 929 0 929 25 37 c36 54 77 74 210 102
66 14 329 71 585 126 755 161 1071 229 1140 245 36 9 97 21 135 28 l70 13 3
-1155 c1 -745 -1 -1158 -8 -1165z m1426 1960 c181 -52 343 -97 361 -101 41 -8
83 -41 83 -64 0 -10 -9 -26 -20 -36 -19 -17 -31 -15 -382 84 -451 127 -455
129 -462 147 -19 49 4 78 55 70 19 -3 184 -48 365 -100z m-135 -201 c129 -36
302 -84 384 -107 83 -22 158 -48 168 -56 34 -30 15 -82 -30 -82 -12 0 -132 31
-267 69 -134 39 -299 84 -367 102 -157 40 -179 51 -179 87 0 32 16 52 40 52
10 0 122 -29 251 -65z m9 -420 c135 -36 308 -81 385 -101 160 -42 197 -64 177
-109 -9 -18 -19 -25 -41 -25 -16 0 -138 29 -272 65 -134 36 -298 79 -364 96
-162 40 -185 51 -185 88 0 28 20 50 45 51 6 0 120 -29 255 -65z m-35 -230
c116 -31 280 -74 365 -96 182 -47 224 -65 228 -97 5 -30 -14 -52 -44 -52 -13
0 -113 24 -221 54 -109 30 -281 75 -383 101 -102 26 -191 51 -197 57 -16 13
-17 60 -1 76 18 18 27 16 253 -43z m36 -614 c59 -75 -47 -163 -115 -95 -32 33
-34 73 -3 101 42 38 85 36 118 -6z m-5 -306 c89 -26 153 -111 162 -211 6 -66
-9 -110 -55 -164 -47 -54 -102 -80 -173 -80 -92 0 -172 47 -211 122 -69 135 1
293 151 339 39 12 72 10 126 -6z m-1286 -640 l0 -274 -82 -3 c-46 -2 -510 -1
-1033 2 l-950 5 -33 23 c-63 46 -72 79 -72 281 l0 180 43 5 c40 5 896 29 1642
45 193 4 380 9 418 9 l67 2 0 -275z m1546 -175 c70 -27 144 -137 144 -215 -1
-127 -137 -248 -260 -230 -130 20 -220 133 -207 260 7 66 29 107 78 147 54 43
104 59 168 52 30 -3 65 -10 77 -14z m-2017 -462 c-2 -71 -37 -121 -113 -161
-37 -19 -59 -22 -243 -25 l-203 -4 0 111 0 111 280 0 280 0 -1 -32z m-99 -373
l0 -45 -625 0 -625 0 0 39 c0 22 5 42 13 44 6 3 288 6 625 6 l612 1 0 -45z"/>
<path d="M5214 6852 c-5 -4 -18 -18 -27 -32 -16 -22 -17 -78 -17 -632 0 -538
2 -608 16 -622 13 -13 43 -16 173 -16 109 0 161 4 169 12 9 9 12 163 12 630
l0 619 -25 24 c-23 24 -29 25 -157 25 -73 0 -138 -4 -144 -8z m196 -647 l0
-525 -55 0 -55 0 0 525 0 525 55 0 55 0 0 -525z"/>
<path d="M5166 5198 c-21 -30 -20 -54 4 -78 19 -19 31 -20 187 -18 l166 3 21
28 c19 26 19 30 5 55 l-15 27 -176 3 c-173 2 -177 2 -192 -20z"/>
<path d="M5170 4978 c-25 -27 -26 -60 -2 -81 14 -13 48 -16 186 -18 165 -2
170 -2 188 20 23 30 23 42 -3 75 l-20 26 -164 0 c-156 0 -165 -1 -185 -22z"/>
<path d="M5170 4760 c-25 -25 -26 -62 -1 -84 16 -14 41 -16 192 -14 l173 3 15
27 c14 25 14 29 -5 55 l-21 28 -166 3 c-156 2 -168 1 -187 -18z"/>
<path d="M5166 4538 c-22 -31 -20 -61 5 -84 19 -17 38 -19 173 -20 158 0 201
9 208 43 5 22 -9 65 -25 75 -7 4 -87 8 -179 8 -161 0 -167 -1 -182 -22z"/>
<path d="M5306 4139 c-32 -25 -36 -84 -7 -120 28 -35 95 -33 127 4 34 39 31
79 -7 111 -37 31 -77 33 -113 5z"/>
<path d="M6024 4720 c-12 -4 -35 -25 -53 -46 -72 -89 -10 -217 105 -217 109 0
176 125 114 213 -36 51 -110 73 -166 50z"/>
<path d="M3688 4255 c-55 -31 -64 -94 -22 -144 55 -66 164 -25 164 61 0 73
-79 118 -142 83z"/>
<path d="M6265 3923 c-56 -15 -95 -71 -95 -137 0 -70 70 -146 135 -146 47 0
115 40 137 80 35 64 10 157 -52 190 -21 11 -101 20 -125 13z"/>
<path d="M1533 6933 l-72 -4 -3 -177 c-2 -133 1 -191 12 -232 12 -45 15 -150
15 -595 l0 -540 -62 -6 c-71 -7 -106 -26 -130 -72 -27 -53 -19 -110 41 -284
31 -89 56 -168 56 -176 0 -8 -11 -22 -24 -30 -37 -25 -104 -133 -126 -204 -19
-62 -20 -93 -20 -612 0 -453 3 -557 15 -604 21 -80 46 -125 104 -189 137 -150
363 -181 544 -75 69 41 150 135 183 213 l29 69 3 538 c2 348 -1 557 -8 595
-15 81 -71 193 -127 253 l-48 51 34 91 c99 273 104 297 77 362 -23 53 -69 77
-138 72 l-58 -5 1 501 c0 299 5 536 11 587 6 47 11 173 12 280 l0 195 -124 1
c-69 0 -157 -1 -197 -3z m185 -255 l4 -117 -31 -15 c-40 -21 -57 -20 -82 5
-19 19 -20 27 -13 127 3 59 8 110 10 113 2 4 27 6 56 5 l53 -1 3 -117z m-28
-804 l0 -505 -32 3 -33 3 -3 490 c-1 270 0 496 3 503 2 6 18 12 35 12 l30 0 0
-506z m-20 -1105 c0 -6 -25 -35 -55 -65 -36 -36 -58 -67 -65 -94 -10 -37 -9
-1114 1 -1180 6 -37 -38 -40 -71 -5 l-25 27 -3 579 -2 579 -25 -6 c-14 -3 -25
-2 -25 3 0 13 52 83 82 111 48 44 188 82 188 51z"/>
<path d="M8277 6879 c-205 -110 -313 -287 -287 -469 15 -102 51 -173 134 -265
l36 -40 -7 -230 -6 -230 -29 -41 c-29 -41 -30 -43 -26 -158 3 -109 4 -117 29
-142 39 -38 103 -43 149 -12 52 35 63 67 68 204 5 120 4 122 -22 157 -27 36
-27 36 -17 130 6 52 14 160 17 241 l7 146 -70 68 c-39 37 -78 83 -88 102 -27
53 -32 159 -10 218 18 45 107 152 128 152 6 0 8 -41 3 -117 -5 -106 -4 -121
13 -150 26 -42 80 -58 127 -38 45 19 77 70 68 110 -3 17 -12 64 -20 105 -9 54
-12 63 -11 30 1 -25 -2 -47 -8 -50 -12 -6 -19 62 -10 107 l6 33 45 -31 c56
-38 120 -118 134 -167 5 -20 10 -61 10 -91 0 -89 -32 -141 -154 -247 -33 -29
-35 -33 -31 -80 3 -27 12 -135 20 -240 l16 -191 -26 -48 c-20 -39 -25 -62 -25
-121 0 -89 16 -170 41 -205 40 -56 129 -63 178 -14 24 23 27 35 32 138 6 116
3 134 -35 175 -20 22 -21 35 -24 258 l-3 234 47 58 c75 91 107 170 112 273 9
182 -76 316 -273 428 -106 61 -140 62 -238 10z"/>
<path d="M7307 6893 c-4 -3 -7 -30 -7 -60 l0 -53 -60 0 -60 0 0 -35 0 -34 60
-7 59 -6 3 -52 3 -51 35 0 c35 0 35 0 38 50 2 27 4 50 5 51 3 3 80 13 100 14
13 0 17 8 17 35 l0 35 -60 0 -60 0 0 60 0 60 -33 0 c-19 0 -37 -3 -40 -7z"/>
<path d="M1040 6790 c0 -5 3 -9 8 -8 16 6 52 -30 46 -46 -7 -17 -29 -22 -38
-7 -8 12 -39 7 -44 -7 -2 -7 1 -12 7 -12 6 0 11 -16 11 -35 0 -19 -4 -35 -10
-35 -5 0 -10 -16 -10 -35 0 -21 -5 -35 -12 -36 -7 -1 5 -5 26 -10 21 -5 41 -7
44 -4 3 3 -2 5 -11 5 -11 0 -17 8 -17 25 0 23 4 25 40 25 38 0 40 -1 40 -31 0
-24 4 -30 15 -25 8 3 15 2 15 -2 0 -4 11 -9 25 -10 14 -1 25 3 25 8 0 6 7 10
15 10 12 0 15 15 13 83 l-2 82 -5 -80 -5 -80 -6 80 -6 80 -2 -82 c-1 -48 -6
-83 -12 -83 -11 0 -14 31 -11 108 2 42 0 52 -13 52 -23 0 -39 36 -26 60 10 19
8 20 -45 20 -30 0 -55 -4 -55 -10z"/>
<path d="M7446 6298 l-59 -102 -6 -290 -6 -291 -39 -6 c-25 -4 -48 -16 -63
-33 -20 -24 -23 -38 -23 -115 l0 -87 -44 -47 c-90 -93 -88 -199 5 -309 l39
-47 0 -351 0 -350 -25 -38 c-42 -64 -46 -115 -43 -483 l3 -344 28 -56 c64
-132 224 -218 351 -189 105 23 199 95 247 188 24 47 24 48 27 422 l3 375 -36
71 -35 72 0 344 0 344 36 35 c97 91 98 243 3 323 l-34 29 0 98 c0 88 -2 101
-22 120 -12 12 -39 25 -60 28 l-38 6 -5 285 -5 286 -65 107 c-36 59 -67 107
-70 107 -3 -1 -32 -47 -64 -102z m162 -833 c7 -3 12 -22 12 -48 l0 -45 -106
-7 c-58 -4 -107 -5 -110 -2 -3 2 -7 27 -11 55 -5 44 -3 51 13 54 21 5 182 -1
202 -7z m100 -267 c22 -22 13 -52 -24 -77 -65 -45 -66 -47 -64 -399 1 -174 1
-323 1 -330 -1 -10 -27 -12 -113 -10 l-113 3 -5 340 c-4 242 -9 346 -17 361
-7 12 -28 31 -48 43 -37 22 -41 31 -25 62 10 18 23 19 203 19 137 0 196 -3
205 -12z m-207 -1402 c1 -410 1 -418 -43 -395 -46 25 -49 48 -46 410 l3 341
24 19 c13 11 33 19 43 17 17 -3 18 -23 19 -392z"/>
<path d="M8958 6328 c-21 -6 -38 -14 -38 -18 0 -4 -12 -18 -26 -31 -65 -60
-101 -158 -82 -227 31 -120 139 -191 270 -179 46 4 57 3 49 -7 -8 -10 -2 -15
24 -23 30 -10 35 -9 41 9 3 11 3 22 0 25 -3 4 -6 -1 -6 -10 0 -10 -8 -17 -20
-17 -23 0 -27 18 -5 26 8 3 17 14 20 25 4 10 14 19 24 19 15 0 18 -8 17 -37
-1 -34 2 -37 32 -44 40 -8 38 -6 46 -49 5 -26 4 -31 -3 -20 -16 23 -13 3 5
-32 11 -21 13 -33 5 -41 -7 -7 -5 -19 6 -37 10 -18 13 -34 8 -46 -7 -16 -9
-15 -15 11 -6 27 -7 25 -14 -22 -8 -55 0 -86 15 -62 5 8 9 24 9 37 0 12 5 22
10 22 14 0 12 -48 -2 -52 -9 -3 -7 -14 5 -40 21 -44 22 -68 2 -68 -10 0 -15
-10 -15 -32 l1 -33 14 25 c13 23 14 24 21 6 10 -25 11 -151 2 -196 -4 -19 -4
-28 0 -20 4 8 12 -41 19 -110 l12 -125 -5 185 c-5 232 -39 534 -77 695 -3 11
-8 40 -12 65 -9 62 -25 110 -36 110 -5 0 -9 -8 -9 -17 -1 -18 -22 -53 -33 -53
-3 0 2 14 10 32 9 17 18 64 21 104 4 67 2 79 -31 151 -19 43 -38 86 -41 96 -5
15 -18 17 -93 16 -48 -1 -105 -6 -125 -11z m126 -190 c35 -49 3 -108 -59 -108
-39 0 -65 28 -65 72 0 54 93 81 124 36z"/>
<path d="M782 6118 c-7 -31 -10 -36 -12 -18 -1 23 -2 23 -9 5 -6 -13 -4 -23 5
-28 8 -5 14 -24 14 -46 l0 -38 -39 7 -38 7 -17 -78 c-12 -57 -14 -84 -6 -98
13 -25 13 -61 0 -61 -5 0 -10 15 -11 33 l-1 32 -8 -33 c-4 -18 -6 -42 -3 -52
3 -10 0 -21 -6 -24 -6 -4 -11 -16 -11 -27 0 -14 7 -19 25 -19 23 0 25 -4 25
-40 0 -36 -2 -40 -25 -40 -21 0 -25 5 -25 32 0 17 -2 29 -4 27 -7 -7 -36 -288
-35 -338 l1 -46 8 39 c4 21 6 48 3 60 -3 21 -3 21 7 1 8 -16 10 -8 7 35 -2 30
0 71 3 90 4 20 6 -9 6 -67 -2 -101 -2 -102 17 -83 12 14 17 32 15 53 -3 28 0
32 24 35 27 3 27 5 30 80 2 43 7 77 13 77 6 0 14 -35 19 -78 8 -69 11 -78 28
-74 15 4 18 -1 18 -39 0 -24 -4 -44 -9 -44 -6 0 -10 -8 -10 -17 1 -10 -2 -28
-6 -39 -5 -17 -2 -23 20 -28 15 -4 30 -5 33 -1 3 3 -2 5 -11 5 -10 0 -17 7
-17 15 0 8 4 15 9 15 4 0 7 18 6 41 -2 30 2 42 14 47 9 3 25 15 36 25 20 19
20 19 -10 15 -16 -3 -25 -3 -18 -1 7 2 10 10 7 18 -3 7 -1 16 5 20 6 3 11 1
11 -6 0 -9 3 -10 11 -2 6 6 25 7 49 3 l38 -7 -1 65 c-1 42 -6 67 -15 70 -8 2
-10 -3 -6 -15 5 -16 4 -16 -11 2 -14 17 -17 18 -25 5 -5 -8 -10 -11 -10 -5 0
19 -28 -31 -35 -62 -11 -54 -27 -40 -37 32 -2 11 -7 23 -13 27 -5 4 -6 10 -2
14 3 4 14 1 24 -7 11 -9 14 -10 9 -1 -5 8 2 12 24 12 18 0 29 4 25 10 -3 6 4
10 17 11 16 1 12 4 -14 11 -69 18 -43 42 42 39 66 -2 122 19 141 55 16 30 29
31 21 2 -3 -14 -2 -19 6 -14 7 4 13 22 14 39 1 26 2 23 7 -13 5 -36 3 -46 -10
-52 -23 -9 -30 -34 -17 -63 14 -32 28 -22 28 21 0 24 5 34 15 34 12 0 15 16
15 80 0 47 -4 80 -10 80 -5 0 -10 -9 -10 -20 0 -11 -4 -20 -9 -20 -6 0 -9 18
-9 40 0 35 3 40 19 35 16 -5 39 18 39 39 0 14 -28 4 -34 -11 -6 -15 -8 -15
-16 -3 -7 11 -13 7 -25 -20 -16 -34 -15 -14 1 25 7 19 7 19 -9 3 -9 -9 -17
-23 -17 -30 0 -7 -8 -1 -17 13 -21 35 -87 51 -138 33 -51 -17 -73 -40 -90 -93
l-14 -46 3 44 c2 23 9 46 15 50 7 5 10 18 6 34 -7 28 15 47 54 47 12 0 21 5
21 10 0 6 -7 10 -15 10 -8 0 -15 5 -15 10 0 6 -18 10 -40 10 l-40 0 -1 43 c-1
23 0 59 1 80 2 49 -7 47 -18 -5z"/>
<path d="M880 5220 c0 -17 7 -20 40 -20 l40 0 0 -55 0 -55 39 0 c36 0 40 3 46
31 4 17 4 51 0 75 l-6 44 -80 0 c-72 0 -79 -2 -79 -20z"/>
<path d="M9073 5011 c-33 -31 -38 -75 -15 -121 11 -22 16 -40 11 -40 -5 0 -9
-5 -9 -12 0 -9 3 -9 12 0 18 18 49 15 42 -3 -4 -8 -1 -15 6 -15 6 0 9 4 5 9
-3 6 15 19 39 30 31 13 46 26 49 43 4 23 4 23 6 1 0 -13 6 -23 11 -23 14 0 12
16 -5 50 -9 17 -11 30 -5 30 15 0 12 26 -5 40 -12 10 -15 10 -15 -1 0 -8 -4
-7 -13 5 -20 28 -87 32 -114 7z"/>
<path d="M787 4953 c-4 -3 -7 -37 -7 -74 0 -61 2 -68 18 -63 14 5 15 4 2 -5
-8 -6 -30 -11 -47 -11 -32 0 -33 -2 -33 -40 0 -22 -4 -40 -10 -40 -5 0 -10
-18 -10 -41 l0 -40 -42 3 c-42 3 -43 4 -49 43 l-6 40 -2 -47 c0 -26 3 -80 8
-120 5 -40 15 -118 21 -173 10 -92 33 -165 51 -165 11 0 19 28 19 65 0 19 4
36 8 39 5 3 7 -16 6 -42 -2 -33 0 -41 6 -26 7 17 16 21 48 20 22 -1 38 3 35 7
-5 9 14 27 28 27 13 0 17 -39 5 -43 -7 -3 -13 -27 -15 -53 -3 -61 -11 -72 -11
-16 0 38 -2 42 -25 42 -23 0 -25 -4 -26 -42 l-1 -43 -10 43 c-11 50 -29 47
-27 -6 l1 -37 8 30 8 30 1 -32 c1 -35 49 -97 58 -75 2 6 12 12 21 12 12 0 13
-3 4 -12 -21 -21 -13 -24 60 -23 63 0 73 3 76 19 3 11 -6 27 -19 38 l-24 19
25 -6 c16 -4 20 -3 12 3 -7 5 -10 16 -6 25 9 24 -4 69 -18 61 -6 -4 -8 -3 -4
4 3 6 1 14 -4 17 -7 4 -8 20 -5 38 10 45 21 53 29 22 4 -15 9 -25 12 -23 2 3
-5 31 -16 64 -20 60 -28 131 -11 106 4 -7 6 -24 4 -36 -4 -18 1 -25 18 -29 30
-8 35 -2 21 28 -7 14 -12 38 -13 53 0 24 -1 25 -9 7 -5 -11 -9 -14 -9 -7 -1 7
-5 11 -11 7 -5 -3 -8 27 -7 77 l2 83 -45 0 c-39 0 -45 -3 -43 -20 1 -11 0 -14
-3 -7 -3 6 -12 12 -20 12 -9 0 -13 -3 -11 -7 3 -5 -15 -9 -39 -11 -26 -2 -44
2 -44 8 0 5 17 10 38 10 20 0 44 5 52 10 13 8 12 10 -3 10 -10 0 -22 12 -27
26 -13 34 -13 34 11 34 16 0 19 -4 14 -21 -7 -20 -7 -21 12 -2 11 10 19 20 17
23 -1 3 20 6 47 7 27 1 49 -2 49 -6 0 -5 7 -11 15 -15 10 -4 15 1 15 14 0 17
-7 19 -76 19 -79 -1 -86 2 -90 26 -1 10 6 15 21 15 31 0 56 -10 50 -20 -3 -5
18 -9 47 -8 29 0 47 3 40 5 -9 4 -10 9 -2 18 8 10 2 12 -32 8 -64 -7 -98 22
-98 85 0 31 -3 42 -9 33 -7 -10 -9 -7 -8 12 1 15 5 27 10 27 4 0 7 5 7 10 0
11 -23 14 -33 3z"/>
<path d="M8123 4879 c-51 -33 -65 -76 -61 -189 3 -92 5 -101 31 -127 l27 -29
0 -651 0 -651 26 -32 c15 -17 39 -37 55 -46 25 -13 29 -20 29 -57 0 -54 16
-77 60 -86 34 -7 35 -8 38 -59 l3 -52 -33 0 -33 0 25 -13 c21 -11 26 -22 31
-72 4 -41 2 -65 -7 -75 -16 -21 -31 -185 -15 -175 7 4 11 14 10 23 -3 36 4 45
10 13 3 -19 12 -36 19 -37 7 -1 8 0 2 3 -13 6 -13 33 0 33 6 0 3 12 -7 28
l-17 27 28 -27 c33 -32 36 -32 70 -16 48 21 76 96 59 153 l-6 20 -8 -20 c-6
-15 -8 -9 -8 21 -1 65 9 106 26 100 8 -3 11 -1 8 5 -4 6 3 8 22 4 22 -5 25 -4
13 4 -8 6 -27 8 -42 5 -28 -6 -28 -5 -28 50 0 53 1 56 25 56 42 0 75 41 75 95
0 33 4 45 15 45 8 0 29 13 47 29 l33 29 5 660 5 660 25 27 c23 25 25 35 28
146 l4 120 -40 39 -40 40 -238 0 c-223 0 -241 -2 -271 -21z m207 -327 c9 -4
15 -21 15 -42 0 -27 4 -35 17 -34 10 1 16 -3 15 -10 -1 -6 10 -10 28 -9 17 0
24 -1 17 -4 -11 -4 -10 -9 2 -22 31 -34 37 -118 31 -376 -5 -164 -3 -259 3
-275 10 -23 11 -21 13 20 l2 45 7 -45 c4 -25 8 64 8 199 1 134 5 242 8 239 3
-3 7 -132 10 -285 l5 -279 -131 -3 -130 -2 0 445 0 446 33 -1 c17 0 39 -3 47
-7z m85 -1082 l0 -65 -75 -1 c-46 -1 -78 3 -82 10 -4 6 -8 37 -8 69 l0 58 83
-3 82 -3 0 -65z"/>
<path d="M9233 4836 c-13 -6 -23 -18 -23 -26 0 -12 -2 -12 -9 -2 -12 20 -21
-20 -21 -100 0 -42 -4 -68 -11 -68 -21 0 -37 -26 -27 -43 6 -13 5 -17 -5 -17
-8 0 -18 -7 -21 -16 -3 -8 -2 -12 4 -9 14 9 23 -39 18 -96 -3 -27 -2 -49 2
-49 11 0 17 35 19 100 1 35 7 59 17 66 8 6 12 18 8 27 -3 8 0 18 5 22 6 3 8
11 5 17 -4 7 -2 8 4 4 6 -4 9 -13 6 -21 -5 -12 -1 -13 27 -3 19 6 28 13 21 16
-7 2 -12 21 -12 43 0 21 -4 39 -10 39 -5 0 -10 18 -10 40 0 33 3 40 20 40 15
0 20 7 20 25 0 14 -1 24 -2 24 -2 -1 -13 -6 -25 -13z"/>
<path d="M1061 4719 c-1 -3 4 -20 10 -38 13 -36 -6 -126 -23 -115 -6 4 -5 -3
2 -15 8 -17 7 -54 -6 -162 -14 -109 -15 -142 -5 -148 7 -5 13 -49 16 -127 2
-69 1 -100 -4 -74 -10 62 -3 -498 7 -590 6 -52 6 -77 -2 -82 -7 -5 -5 -8 5 -8
16 0 35 -56 31 -86 -1 -6 5 -17 13 -24 21 -18 20 -2 -7 73 -23 62 -23 64 -23
672 0 550 2 614 17 654 12 31 14 50 7 60 -8 14 -9 14 -8 1 3 -37 -3 -43 -16
-15 -7 17 -14 27 -14 24z"/>
<path d="M8963 4229 c-30 -11 -63 -58 -63 -90 0 -16 7 -44 16 -62 15 -32 15
-37 -4 -88 -32 -85 -35 -96 -13 -59 11 19 20 43 21 53 0 9 4 17 9 17 5 0 11 9
14 20 4 16 14 20 44 20 21 0 45 6 54 13 44 34 52 109 17 147 -13 14 -22 27
-21 30 2 8 -51 8 -74 -1z"/>
<path d="M2415 3199 c-2 -8 -6 -32 -7 -54 l-3 -40 -55 0 -55 0 0 -45 0 -45 84
-8 c46 -5 89 -6 97 -3 11 4 14 29 14 101 0 87 -2 95 -19 95 -11 0 -26 3 -35 6
-9 3 -18 0 -21 -7z"/>
<path d="M7593 2840 c-87 -18 -190 -88 -242 -164 -42 -60 -71 -154 -71 -226
l0 -60 -912 0 -913 1 -28 43 c-36 58 -83 80 -154 73 -97 -10 -153 -72 -153
-169 0 -134 130 -203 256 -136 l52 27 958 1 959 2 55 -53 c30 -28 82 -65 115
-80 191 -90 427 -6 521 186 26 55 29 69 29 165 0 95 -3 111 -29 168 -38 83
-132 171 -213 202 -65 24 -167 33 -230 20z m209 -157 c81 -44 136 -132 137
-224 3 -153 -134 -282 -284 -266 -136 14 -235 125 -235 262 0 76 15 117 59
168 87 99 209 122 323 60z"/>
<path d="M4458 2778 c-4 -30 -79 -59 -107 -41 -27 17 -75 -18 -100 -73 -17
-36 -26 -44 -40 -39 -31 9 -71 -52 -76 -115 -6 -63 -11 -72 -38 -68 -18 2 -23
-3 -27 -32 -7 -43 -2 -60 16 -60 10 0 14 -12 14 -39 0 -30 -4 -40 -20 -44 -11
-3 -18 -11 -16 -19 2 -7 7 -26 11 -42 5 -22 10 -27 26 -23 23 6 43 -24 34 -53
-4 -12 3 -36 16 -60 23 -40 29 -44 62 -40 31 3 57 -28 50 -60 -4 -24 -1 -31
25 -44 40 -21 72 -21 72 0 0 12 5 14 18 9 9 -4 29 -10 44 -12 19 -4 30 -14 37
-35 9 -25 15 -29 33 -24 13 3 33 6 46 6 15 0 22 6 22 19 0 11 8 22 18 24 60
17 73 17 78 2 8 -21 41 -19 80 6 27 16 33 25 28 43 -7 30 34 65 69 59 21 -4
30 2 52 37 15 23 24 48 21 55 -9 26 17 75 40 75 38 0 50 78 14 87 -29 8 -29
78 1 86 17 5 20 12 17 44 -2 31 -7 39 -26 41 -28 4 -45 36 -44 82 2 48 -55
118 -83 103 -15 -9 -23 -5 -42 18 -14 16 -21 34 -18 40 18 28 -73 72 -100 49
-25 -20 -93 4 -101 35 -5 22 -11 25 -54 25 -43 0 -49 -3 -52 -22z m187 -172
c106 -53 169 -153 169 -271 1 -94 -16 -143 -66 -200 -91 -104 -232 -134 -353
-76 -191 90 -233 330 -86 484 93 96 218 120 336 63z"/>
<path d="M4446 2555 c-54 -19 -107 -64 -136 -116 -34 -59 -35 -167 -3 -219
119 -192 388 -162 449 48 25 84 1 163 -68 229 -68 66 -159 88 -242 58z m165
-134 c35 -35 39 -44 39 -91 0 -47 -4 -56 -39 -91 -33 -33 -45 -39 -81 -39 -73
0 -140 62 -140 129 0 72 63 131 139 131 37 0 49 -6 82 -39z"/>
<path d="M2360 2784 c-96 -16 -184 -66 -244 -135 -20 -24 -36 -46 -36 -50 0
-4 -7 -9 -14 -12 -10 -4 -13 -1 -10 7 3 7 -2 16 -11 20 -9 3 -13 2 -10 -4 4
-6 -2 -18 -11 -28 -17 -16 -18 -16 -11 1 9 25 -1 41 -18 27 -9 -8 -14 -5 -18
10 -3 11 -11 20 -18 20 -7 0 -9 -3 -6 -6 10 -10 -12 -44 -28 -44 -18 0 -19 14
-5 41 13 23 7 25 -14 3 -9 -8 -16 -11 -16 -5 0 6 -6 8 -14 5 -9 -3 -17 3 -21
15 -3 12 -11 21 -17 21 -6 0 -3 9 7 20 18 19 17 20 -3 20 -11 0 -29 3 -39 7
-15 6 -16 4 -5 -9 10 -13 9 -15 -13 -10 -24 4 -36 22 -15 22 6 0 10 7 10 15 0
17 -16 21 -22 5 -1 -5 -20 -11 -40 -12 -21 -2 -38 -6 -38 -10 0 -4 -12 -8 -27
-10 -16 -2 -27 -8 -25 -15 1 -7 -5 -13 -14 -13 -10 0 -13 -6 -9 -19 3 -11 0
-21 -8 -24 -10 -4 -15 -26 -16 -74 -2 -68 -1 -70 39 -116 47 -53 106 -77 147
-58 13 6 35 11 48 11 17 0 25 6 27 22 4 27 38 38 38 13 0 -11 5 -15 15 -11 23
9 38 -31 32 -88 -3 -29 -2 -42 2 -31 14 34 23 148 12 141 -5 -4 -22 5 -36 19
-26 23 -27 27 -17 72 l10 48 1 -55 c2 -46 4 -51 12 -31 5 13 7 32 4 42 -5 14
-1 19 13 19 16 0 20 -9 25 -57 4 -40 12 -63 25 -74 16 -12 18 -23 13 -55 -4
-21 -3 -61 3 -87 8 -41 6 -50 -10 -63 -18 -15 -18 -15 4 -11 27 6 28 -7 2 -33
-14 -14 -16 -20 -6 -20 8 0 17 8 21 17 5 14 10 9 24 -22 10 -22 35 -62 55 -89
21 -26 32 -45 26 -41 -7 4 -16 1 -21 -6 -6 -10 -9 -11 -9 -1 0 6 -7 12 -15 12
-28 0 -16 -30 13 -31 15 0 21 -3 15 -6 -15 -5 -18 -63 -4 -63 5 0 11 4 13 9 2
5 11 3 22 -4 18 -14 18 -14 0 -14 -63 2 -124 -5 -124 -13 0 -5 17 -8 37 -6 22
2 38 -2 41 -10 2 -7 21 -12 43 -12 32 0 39 -3 39 -20 0 -17 -7 -20 -42 -20
-30 -1 -52 -8 -73 -25 l-29 -24 33 -30 c18 -16 39 -27 47 -24 20 7 17 14 -3
11 -14 -2 -18 4 -17 24 0 21 -3 25 -13 17 -6 -6 -17 -8 -23 -4 -21 13 37 33
119 40 45 4 81 11 81 16 0 5 10 9 23 10 21 0 21 1 2 8 -11 5 -24 6 -29 3 -5
-2 -6 1 -4 9 3 10 17 13 44 11 29 -2 35 0 24 7 -8 6 -23 11 -32 11 -10 0 -18
5 -18 11 0 11 7 10 70 -5 78 -20 157 -18 221 4 149 53 252 167 294 325 55 215
-67 449 -276 525 -54 20 -153 32 -199 24z m130 -24 c23 -7 22 -8 -10 -9 -104
-3 -226 -57 -307 -136 -31 -30 -60 -52 -65 -49 -13 8 28 79 67 112 84 74 225
111 315 82z m31 -213 c162 -86 165 -330 6 -421 -91 -51 -172 -40 -248 33 -47
46 -79 118 -79 178 0 86 59 180 134 214 58 26 133 24 187 -4z"/>
<path d="M3168 2755 c-15 -8 -32 -24 -38 -35 -16 -31 -12 -85 10 -113 18 -23
20 -40 20 -205 0 -99 3 -187 6 -196 5 -14 37 -16 250 -16 210 0 244 -2 244
-15 0 -8 5 -15 10 -15 13 0 110 72 110 81 0 10 -98 99 -110 99 -5 0 -10 -9
-10 -20 0 -20 -5 -20 -190 -18 l-191 3 -1 141 c0 117 3 146 17 167 9 15 17 42
18 62 2 68 -83 115 -145 80z"/>
<path d="M5626 2729 c-20 -16 -26 -29 -26 -59 0 -79 84 -109 134 -49 39 46 35
79 -14 112 -33 23 -62 21 -94 -4z"/>
<path d="M8058 2082 c-7 -10 -41 -39 -76 -65 -76 -56 -164 -86 -277 -94 -70
-4 -91 -2 -171 24 -49 16 -107 41 -129 56 -41 28 -61 27 -46 -1 5 -9 12 -25
15 -34 3 -10 13 -18 23 -18 17 1 17 1 -1 15 -10 7 -15 18 -12 24 7 11 46 -21
46 -37 0 -9 16 -13 62 -14 15 -1 25 -5 21 -11 -7 -11 -123 -1 -136 12 -21 21
-37 -1 -37 -50 0 -37 -4 -49 -15 -49 -11 0 -15 -11 -15 -40 0 -29 -4 -40 -15
-40 -16 0 -19 -9 -9 -34 7 -18 34 -22 34 -5 0 7 10 9 25 7 17 -4 25 -1 25 8 0
8 7 14 15 14 7 0 18 7 23 16 8 14 10 12 14 -10 5 -22 2 -26 -13 -21 -13 4 -19
1 -19 -9 0 -10 9 -16 23 -17 12 0 16 -3 10 -6 -26 -10 -12 -18 35 -19 26 -1
38 1 28 4 -11 2 -26 10 -34 18 -11 12 -11 14 2 14 8 0 18 -4 21 -10 3 -5 15
-10 25 -10 13 0 18 -7 17 -20 -1 -18 -8 -20 -79 -20 -45 0 -78 -4 -78 -10 0
-5 18 -10 40 -10 22 0 40 -4 40 -10 0 -5 -18 -10 -40 -10 -22 0 -40 -4 -40
-10 0 -5 23 -10 50 -10 39 0 50 -4 50 -16 0 -26 -26 -44 -64 -44 -20 0 -36 -4
-36 -10 0 -6 29 -10 68 -10 l69 0 -5 28 c-5 37 17 55 70 54 29 -1 38 2 28 8
-12 7 -12 12 -2 22 6 6 12 20 12 30 0 14 -8 18 -32 18 l-33 1 24 19 c25 22 41
26 41 11 0 -5 -10 -12 -22 -14 -16 -4 -14 -5 6 -4 19 1 30 8 32 20 2 13 -6 17
-34 18 -34 1 -32 3 18 13 53 11 62 19 63 56 0 8 5 18 10 22 16 10 -59 21 -99
15 -55 -9 -134 3 -134 20 0 10 6 13 16 9 11 -4 18 1 21 14 3 11 13 20 22 21 9
0 25 2 35 4 34 6 75 -6 69 -21 -2 -7 -12 -15 -21 -18 -10 -2 2 -4 25 -3 37 1
41 3 32 19 -8 14 -6 18 8 19 10 0 59 7 108 15 110 18 125 19 150 10 15 -5 14
-4 -3 7 -23 13 -23 14 32 37 30 14 53 26 51 28 -2 3 16 20 40 39 25 19 45 38
45 44 0 6 5 7 12 3 7 -4 8 -3 4 4 -10 16 -13 15 -28 -6z"/>
<path d="M2995 2001 c-104 -7 -130 -22 -211 -119 -26 -31 -45 -50 -42 -42 5
16 -5 28 -40 47 -19 11 -23 10 -33 -10 -15 -29 -28 -37 -59 -37 l-25 0 25 20
c14 10 21 22 18 26 -11 10 -79 12 -108 2 -22 -7 -21 -7 8 -5 17 2 32 1 32 -3
0 -10 -92 -40 -122 -40 -34 0 -36 -12 -5 -25 17 -8 21 -17 19 -38 -2 -17 1
-26 7 -23 6 4 11 -11 14 -36 l4 -43 1 43 c1 26 6 41 12 37 6 -3 10 -1 10 4 0
14 33 14 46 1 6 -6 15 -6 24 0 12 8 12 12 2 18 -10 7 -8 13 7 26 27 24 47 12
28 -17 -8 -12 -17 -34 -21 -49 -3 -16 -11 -28 -16 -28 -6 0 -9 -26 -8 -57 l1
-58 6 45 6 45 12 -30 c20 -54 23 -66 13 -60 -6 4 -10 -10 -10 -34 0 -37 2 -41
25 -41 16 0 25 6 25 15 0 8 5 15 10 15 6 0 10 -7 10 -15 0 -8 -4 -15 -10 -15
-5 0 -10 -9 -10 -21 0 -22 22 -49 39 -49 15 0 14 -17 -1 -23 -7 -3 -1 -6 13
-6 21 -1 31 -10 47 -42 11 -22 22 -34 24 -27 3 7 -4 21 -14 32 -10 11 -18 30
-18 43 0 13 -5 22 -11 21 -6 -2 -14 4 -16 12 -3 10 -2 11 4 3 6 -8 14 -9 23
-3 10 7 11 10 3 10 -7 0 -13 5 -13 10 0 7 8 6 22 -1 14 -8 18 -14 10 -17 -6
-2 -12 -8 -12 -14 0 -6 7 -7 15 -4 11 4 17 -3 21 -24 4 -17 15 -32 27 -36 15
-5 17 -8 6 -15 -11 -7 -9 -9 8 -9 12 0 23 -6 26 -12 2 -7 8 -9 13 -5 5 4 4 11
-1 15 -17 12 -85 116 -85 130 0 7 13 12 31 12 23 0 44 -12 81 -45 27 -24 66
-49 86 -55 23 -6 205 -10 464 -10 480 0 469 -2 558 77 l45 40 113 -5 112 -5 0
37 0 36 230 0 c255 0 262 1 358 67 28 20 52 38 52 39 0 2 -20 15 -43 29 l-44
25 -276 0 -276 0 -3 33 -3 32 -86 3 -85 3 -13 34 c-16 44 -94 125 -146 150
-38 19 -64 20 -440 21 -220 1 -440 -1 -490 -5z m861 -167 c47 -35 67 -70 70
-123 3 -44 1 -51 -19 -57 -12 -4 -24 -9 -27 -13 -23 -28 -60 -31 -402 -32
-325 -1 -349 -2 -305 -16 26 -8 47 -18 47 -24 0 -5 33 -10 73 -10 72 -2 72 -2
22 -9 -27 -5 -106 -9 -175 -9 -147 -1 -182 11 -217 74 -38 68 -23 156 37 210
31 28 103 32 517 31 339 -1 353 -2 379 -22z"/>
<path d="M5840 1985 c-19 -11 -65 -14 -184 -15 l-158 0 -57 -58 c-31 -32 -111
-119 -178 -195 -114 -126 -123 -140 -123 -177 0 -34 8 -49 65 -114 36 -41 65
-79 65 -85 0 -6 5 -20 10 -31 6 -11 15 -29 20 -40 14 -27 13 -33 -6 -26 -12 4
-14 1 -9 -14 4 -11 4 -20 0 -20 -16 0 -84 47 -88 60 -6 23 3 40 21 40 10 0 12
3 7 9 -6 5 -34 5 -65 1 -30 -5 -158 -9 -285 -10 -126 -2 -243 -5 -260 -9 l-30
-7 40 -7 c22 -4 52 -7 68 -7 25 0 27 -3 27 -40 l0 -40 -65 0 -65 0 0 -39 c0
-25 -5 -41 -15 -45 -9 -3 -15 0 -15 9 0 11 -11 15 -40 15 l-40 0 0 -57 c0 -82
17 -123 51 -123 15 0 30 6 32 13 4 9 6 9 6 0 1 -8 15 -13 36 -13 l35 0 0 -77
0 -78 -157 0 c-153 0 -158 -1 -161 -21 -3 -20 2 -21 74 -23 47 -1 80 2 84 9 8
13 52 15 158 5 l82 -7 0 136 0 136 -24 0 c-25 0 -36 16 -36 55 0 18 5 23 20
22 12 -1 20 -8 20 -20 0 -10 5 -15 10 -12 6 3 10 17 10 31 0 21 -4 24 -40 24
-23 0 -40 5 -40 11 0 8 17 10 50 7 38 -4 53 -1 65 12 19 21 19 30 0 30 -8 0
-15 5 -15 10 0 6 9 10 20 10 15 0 20 7 20 26 0 41 22 54 90 54 72 0 90 -13 90
-64 0 -36 -21 -53 -53 -40 -10 3 -20 -2 -27 -15 -9 -17 -8 -21 4 -21 10 0 13
6 10 15 -5 12 -2 13 17 7 33 -13 59 13 59 59 0 34 2 37 33 40 17 2 57 2 87 -1
l55 -5 3 -39 c3 -38 -16 -75 -25 -48 -3 6 -11 12 -19 12 -10 0 -14 -12 -14
-40 0 -28 4 -40 14 -40 8 0 16 6 19 13 3 9 7 9 19 0 18 -15 69 -20 87 -8 16 9
8 -8 -16 -36 -8 -9 -13 -22 -11 -29 5 -21 57 -74 65 -66 4 4 3 10 -2 14 -16
11 -39 61 -32 69 4 3 7 0 7 -7 0 -7 11 -28 25 -45 13 -18 21 -36 17 -40 -4 -5
-2 -5 4 -2 13 7 51 -30 41 -40 -4 -3 -7 -2 -7 4 0 6 -7 13 -15 17 -13 5 -14 2
-4 -15 6 -11 7 -24 3 -27 -4 -4 -9 -1 -11 6 -4 10 -8 10 -20 0 -12 -10 -18 -9
-30 7 -13 18 -12 21 14 27 22 6 20 6 -9 3 -21 -2 -38 0 -38 6 0 5 5 9 10 9 6
0 10 5 10 10 0 18 -19 10 -25 -11 -6 -17 -9 -19 -16 -8 -12 19 -11 25 6 43 14
13 13 16 -5 26 -16 9 -25 7 -44 -7 -12 -10 -21 -23 -19 -30 3 -7 -3 -9 -16 -6
-24 6 -26 14 -10 30 8 8 8 16 0 30 -10 17 -10 17 -11 0 0 -15 -7 -18 -32 -15
-29 3 -33 0 -36 -24 -2 -16 1 -28 6 -28 5 0 8 12 6 28 -2 15 -1 21 2 15 3 -7
11 -13 18 -13 8 0 13 -12 12 -30 -1 -24 -5 -30 -21 -28 -26 4 -34 16 -36 53
l-2 30 -7 -30 c-15 -65 -21 -73 -66 -85 -24 -7 -62 -10 -83 -6 -22 3 -42 2
-45 -2 -2 -4 23 -9 57 -10 34 -1 69 -5 79 -8 9 -3 22 3 30 14 16 22 45 35 53
22 3 -5 -8 -16 -25 -25 -16 -8 -30 -20 -30 -26 0 -6 -4 -8 -9 -5 -4 3 -5 -13
0 -37 4 -23 5 -44 3 -46 -2 -2 -4 1 -4 7 0 7 -7 12 -15 12 -8 0 -15 -4 -15
-10 0 -5 -7 -10 -16 -10 -10 0 -14 6 -11 14 3 8 -1 20 -9 26 -9 8 -14 9 -14 2
0 -6 -13 -13 -30 -17 -16 -4 -30 -11 -30 -16 0 -5 3 -8 8 -7 4 1 17 -3 29 -10
14 -8 24 -9 28 -2 4 7 14 6 28 -2 12 -7 46 -11 75 -9 31 1 52 -2 52 -8 0 -6
-16 -11 -35 -11 -31 0 -35 -3 -35 -25 0 -25 -1 -25 -85 -25 -55 0 -85 -4 -85
-11 0 -8 24 -9 80 -4 55 5 80 4 80 -4 0 -7 -47 -12 -132 -14 l-133 -3 175 -3
c127 -3 163 -6 130 -12 -62 -10 -256 -11 -305 0 -22 5 -58 6 -80 2 -32 -6 -12
-9 90 -16 160 -10 618 -1 623 13 1 5 14 7 27 4 21 -4 174 10 246 23 13 2 51 9
84 14 158 27 189 32 195 36 4 2 22 7 41 10 61 11 264 64 298 78 32 14 32 14
10 20 -34 9 -69 8 -69 -2 0 -4 12 -6 28 -3 15 2 25 2 22 -1 -9 -10 -144 -35
-160 -30 -13 4 -13 4 0 -6 13 -9 13 -11 -1 -11 -8 0 -21 6 -27 12 -9 9 -15 10
-20 2 -10 -15 -75 -24 -93 -13 -10 6 -2 9 24 9 40 0 50 15 17 25 -32 10 -25
44 10 52 17 3 30 10 30 16 0 6 15 7 38 4 22 -4 31 -3 23 2 -18 12 2 24 43 25
28 1 31 4 30 34 -1 17 2 32 6 32 8 0 23 -27 24 -45 1 -5 20 -11 44 -13 36 -3
42 0 42 16 0 11 -7 22 -15 26 -8 3 -15 1 -15 -4 0 -19 -49 -10 -60 11 -10 17
-7 25 14 46 16 16 30 22 38 17 7 -5 2 6 -12 23 -14 17 -26 29 -28 28 -1 -1
-20 16 -42 37 -27 28 -36 43 -29 51 5 7 20 28 32 47 17 26 29 34 48 33 13 -2
34 -3 47 -4 17 -1 22 -7 22 -30 0 -19 5 -29 15 -29 9 0 15 9 15 25 0 14 -4 25
-10 25 -5 0 -10 6 -10 13 0 8 7 14 15 14 8 0 15 -5 15 -11 1 -31 20 24 20 57
0 34 -2 37 -29 37 -16 0 -32 -6 -35 -12 -4 -7 -4 -3 -2 10 2 12 0 20 -5 16 -5
-3 -9 -12 -9 -20 0 -8 -5 -12 -10 -9 -6 4 -7 11 -4 17 4 7 2 8 -4 4 -7 -4 -12
-17 -12 -29 -1 -23 -21 -57 -35 -57 -4 0 -2 7 5 15 7 9 18 39 25 68 l11 52 65
1 c64 1 64 1 14 -6 l-50 -7 63 -1 c36 -1 62 2 62 8 0 6 128 10 365 10 287 0
373 3 398 14 49 20 81 16 85 -11 2 -13 9 -23 17 -23 17 0 27 -27 12 -34 -7 -2
3 -5 21 -5 28 -1 32 2 32 24 0 18 -5 25 -20 25 -21 0 -27 15 -10 25 5 3 24 6
43 7 28 1 33 4 29 20 -6 23 -32 24 -32 1 0 -9 -2 -14 -5 -11 -4 3 -3 17 1 32
7 28 34 36 34 11 0 -8 7 -15 16 -15 12 0 15 -6 11 -21 -4 -14 -2 -18 4 -12 5
5 7 23 3 39 -5 24 -11 30 -34 32 -16 1 -31 -2 -35 -8 -14 -22 -43 -10 -50 21
-9 38 0 50 9 12 6 -21 9 -24 17 -12 12 20 11 32 -2 23 -9 -5 -10 1 -5 22 5 21
4 25 -3 14 -7 -10 -8 14 -4 75 6 100 12 122 14 54 l2 -44 7 50 c11 69 11 127
0 100 -6 -17 -9 -15 -15 17 -4 20 -4 47 -1 60 3 12 3 17 0 10 -5 -10 -9 -10
-22 0 -14 11 -15 10 -7 -7 4 -11 9 -33 11 -50 l4 -30 -9 27 c-5 15 -19 44 -32
65 -13 20 -18 33 -11 29 8 -5 10 -2 6 8 -3 9 -9 17 -13 17 -3 1 -18 3 -33 4
-15 2 -36 9 -47 14 -13 8 -216 11 -628 11 -508 -1 -612 -3 -633 -15z m1167
-158 c0 -18 1 -39 2 -48 2 -23 46 -30 66 -10 15 15 16 10 9 -69 -4 -47 -12
-88 -18 -92 -7 -5 -6 -8 4 -8 9 -1 5 -6 -10 -15 -20 -11 -73 -14 -265 -13
-200 2 -219 3 -115 8 l125 6 -122 2 c-69 1 -124 -2 -128 -8 -8 -12 -51 5 -47
19 3 15 -8 14 -43 -6 -41 -22 -275 -32 -275 -12 0 8 -16 52 -35 98 -31 78 -33
87 -20 117 27 66 16 65 466 63 l407 -1 -1 -31z m-1337 -102 c0 -51 -2 -55 -23
-55 -35 0 -112 -55 -151 -108 -23 -33 -36 -63 -41 -100 l-7 -54 -22 23 c-43
46 -64 81 -59 97 9 25 95 131 145 179 51 50 93 73 131 73 26 0 27 -2 27 -55z
m286 -52 c103 -112 99 -280 -9 -388 -77 -76 -178 -104 -268 -74 -65 22 -69 31
-69 145 0 56 4 114 10 128 9 26 10 26 122 26 62 0 118 4 124 8 24 15 34 54 34
126 0 42 3 76 6 76 4 0 26 -21 50 -47z m-358 -907 c3 -3 23 -6 44 -6 31 0 38
-3 38 -20 0 -19 -7 -20 -102 -21 -63 0 -116 -6 -138 -15 l-35 -14 57 3 c31 1
54 -1 51 -5 -2 -5 -50 -8 -106 -7 -95 1 -99 2 -57 12 26 6 37 12 28 14 -12 3
-18 14 -18 33 0 27 3 29 43 33 55 5 187 0 195 -7z"/>
<path d="M6758 1383 c76 -2 122 -8 122 -14 0 -7 -60 -9 -180 -7 -119 2 -176 0
-169 -7 5 -5 50 -12 99 -13 81 -4 90 -6 90 -23 0 -17 -8 -19 -74 -19 -41 0
-78 -5 -81 -10 -4 -6 -11 -8 -16 -5 -11 7 -11 -3 1 -30 8 -19 9 -19 9 3 1 24
1 24 119 20 112 -3 117 -4 120 -26 3 -18 10 -22 43 -22 28 0 39 -4 39 -15 0
-12 -13 -15 -60 -15 l-60 0 0 -35 c0 -22 -6 -38 -15 -41 -23 -9 -7 -24 26 -24
27 0 29 3 29 35 0 34 1 35 39 35 22 0 41 -5 43 -11 6 -17 45 6 53 30 3 11 21
31 40 46 42 31 45 52 8 58 -22 3 -20 4 10 6 21 0 36 -3 33 -8 -7 -10 30 -19
57 -13 13 3 17 13 17 43 0 21 5 39 10 39 6 0 10 -9 10 -20 0 -27 16 -25 52 5
24 20 27 26 14 31 -9 3 -29 4 -44 1 -15 -4 -45 -10 -67 -14 -40 -9 -115 4
-115 19 0 4 -73 7 -162 6 -154 -2 -156 -3 -40 -5z"/>
<path d="M3198 1287 c58 -7 82 -14 82 -23 0 -10 -13 -14 -40 -14 -36 0 -40 -2
-40 -25 0 -23 -4 -25 -45 -25 l-45 0 0 -45 0 -45 27 13 c20 9 27 9 30 0 3 -8
22 -10 59 -6 50 5 54 4 54 -16 0 -11 4 -21 9 -21 14 0 20 -38 7 -44 -6 -2 2
-5 18 -5 25 -1 27 -3 15 -17 -12 -14 -11 -16 6 -13 16 3 21 14 23 47 3 39 5
42 32 42 16 0 36 -7 44 -16 15 -14 16 -14 16 2 0 17 1 17 13 -1 10 -13 16 -15
21 -6 4 6 2 19 -5 27 -6 8 -9 17 -6 21 4 3 9 -2 13 -11 3 -9 14 -16 23 -16 10
0 12 -3 5 -8 -14 -9 -26 -42 -15 -42 5 0 12 7 15 16 4 10 13 13 26 9 11 -3 20
-2 20 4 0 5 -8 12 -17 14 -14 4 -13 5 4 6 12 0 25 6 29 12 4 8 12 3 21 -12
l14 -24 -6 29 c-5 25 -4 27 9 14 8 -9 12 -24 9 -37 -3 -12 -1 -21 6 -21 6 0
11 9 11 20 0 11 4 20 9 20 12 0 7 -45 -6 -62 -5 -7 -13 -21 -16 -30 -4 -12 -2
-15 10 -11 12 5 14 1 8 -18 -5 -18 -4 -21 4 -9 9 13 11 13 11 0 0 -10 5 -7 16
8 12 18 24 22 59 20 47 -1 69 -10 63 -24 -1 -5 7 -10 19 -12 22 -3 39 -34 29
-51 -3 -4 -20 -11 -37 -15 -50 -10 -31 -13 44 -8 48 3 67 8 67 18 0 10 13 14
40 14 33 0 40 3 40 20 0 17 7 20 40 20 22 0 40 -4 40 -10 0 -5 18 -10 40 -10
l40 0 0 -45 0 -45 40 0 c33 0 40 -3 40 -20 0 -17 7 -20 40 -20 l40 0 0 40 0
40 80 0 c44 0 80 4 80 9 0 5 -36 12 -80 16 -44 4 -80 12 -80 17 0 7 -23 8 -66
4 -58 -6 -65 -5 -62 10 2 10 27 24 66 37 68 23 80 35 30 31 -26 -3 -23 -1 10
7 34 8 46 17 61 47 23 47 37 139 18 124 -8 -7 -16 -6 -24 3 -10 11 -10 14 0
18 25 9 -2 17 -66 19 -50 1 -71 -3 -85 -15 -24 -22 -38 -22 -21 0 12 15 12 16
-3 10 -12 -4 -18 -2 -18 7 0 8 5 16 12 18 9 3 9 6 0 12 -7 4 -12 2 -12 -3 0
-6 -16 -11 -36 -11 -23 0 -42 -6 -50 -17 -13 -17 -13 -17 -14 2 -1 19 -2 19
-20 -4 -12 -14 -20 -38 -20 -62 0 -37 2 -39 30 -39 28 0 30 2 30 40 0 22 5 40
10 40 6 0 10 -18 10 -40 0 -29 4 -40 15 -40 11 0 15 -11 15 -40 0 -38 -12 -52
-25 -30 -14 23 -25 7 -25 -40 l0 -50 -40 0 -40 0 0 40 c0 22 -4 40 -10 40 -5
0 -10 -18 -10 -39 l0 -39 -72 -4 c-45 -2 -77 1 -87 9 -14 11 -14 12 2 13 38 0
14 20 -25 20 -39 0 -40 1 -22 15 17 13 14 14 -38 12 -40 -1 -59 2 -63 11 -11
30 -8 32 60 35 19 1 35 5 35 10 0 4 6 7 14 7 10 0 12 -7 8 -22 -5 -21 -3 -20
24 7 16 17 38 35 49 42 16 10 17 11 2 6 -15 -5 -17 -1 -12 19 4 15 1 29 -7 35
-18 15 -78 22 -85 10 -3 -5 -9 -3 -14 4 -7 11 -9 11 -8 -1 0 -8 4 -24 8 -35 6
-14 0 -26 -23 -47 -31 -29 -46 -35 -46 -19 0 5 8 11 18 13 15 4 18 12 14 37
-3 21 0 31 9 31 7 0 9 3 6 7 -11 11 -97 21 -103 11 -3 -4 -10 -8 -15 -8 -6 0
-8 3 -5 8 7 11 -107 6 -131 -6 -18 -10 -22 -8 -27 11 -13 49 -8 57 33 57 22 0
42 4 46 10 3 5 45 9 93 8 48 0 107 5 132 12 25 6 61 9 80 6 24 -4 30 -3 20 4
-8 5 -103 10 -211 10 l-197 0 -6 -25 c-7 -28 -30 -33 -44 -10 -10 19 -104 34
-207 33 l-70 -1 83 -10z"/>
<path d="M6351 1268 c-20 -19 -23 -20 -18 -5 4 11 3 16 -4 12 -5 -4 -7 -15 -4
-25 3 -11 1 -29 -5 -40 -9 -16 -8 -25 0 -35 7 -8 8 -20 4 -26 -5 -8 -3 -9 6
-4 10 6 12 4 7 -9 -5 -13 -3 -17 7 -13 8 3 16 2 18 -3 11 -30 122 1 137 39 15
42 22 109 11 116 -5 3 -10 -1 -10 -10 0 -13 -4 -12 -22 5 -31 28 -96 27 -127
-2z"/>
</g>
</svg>
